<svg xmlns="http://www.w3.org/2000/svg" viewBox="0 0 400 560" fill="none" ><title>Transparent collection tile frame</title><defs><linearGradient id="g" x2="1" y2="1"><stop stop-color="#D8C17A"/><stop offset="1" stop-color="#B89446"/></linearGradient><radialGradient id="bg"><stop stop-color="#B89446" stop-opacity=".3"/><stop offset="1" stop-color="#0B0C0E"/></radialGradient></defs><path d="M28 4H372l24 24v504l-24 24H28L4 532V28Z" stroke="url(#g)" stroke-width="2"/><path d="M31 14h338l17 17v498l-17 17H31l-17-17V31Z" stroke="url(#g)" stroke-opacity=".35"/><path d="M20 50v-30h30m-20 10h10v10" transform="rotate(0 20 20)" stroke="#D8C17A" stroke-width="2"/><path d="M380 50v-30h30m-20 10h10v10" transform="rotate(90 380 20)" stroke="#D8C17A" stroke-width="2"/><path d="M380 570v-30h30m-20 10h10v10" transform="rotate(180 380 540)" stroke="#D8C17A" stroke-width="2"/><path d="M20 570v-30h30m-20 10h10v10" transform="rotate(270 20 540)" stroke="#D8C17A" stroke-width="2"/><path d="m200 5 10 10-10 10-10-10Z" fill="#B89446"/></svg>
